<svg width="23" height="26" viewBox="0 0 23 26" fill="none" xmlns="http://www.w3.org/2000/svg">
<path d="M20.533 4.39999H20.9481C21.1687 4.39966 21.3823 4.47513 21.5507 4.61294C21.7191 4.75075 21.8314 4.94193 21.8676 5.15239L22.4874 8.75239C22.5096 8.88126 22.5024 9.01326 22.4665 9.1392C22.4306 9.26515 22.3668 9.38202 22.2795 9.48171C22.1922 9.58139 22.0834 9.6615 21.9609 9.71646C21.8383 9.77143 21.7049 9.79993 21.5698 9.79999H20.1347L18.9993 25.1648C18.9823 25.3918 18.8771 25.6041 18.7048 25.7591C18.5324 25.914 18.3058 26.0001 18.0705 26H4.92208C4.68643 26.0006 4.45933 25.9147 4.2866 25.7597C4.11387 25.6047 4.00838 25.3921 3.99142 25.1648L2.85973 9.79999H1.43023C1.29514 9.79993 1.16168 9.77143 1.03912 9.71646C0.916564 9.6615 0.807851 9.58139 0.720532 9.48171C0.633213 9.38202 0.569383 9.26515 0.533476 9.1392C0.497569 9.01326 0.490445 8.88126 0.512601 8.75239L1.13242 5.15239C1.1686 4.94193 1.28092 4.75075 1.44933 4.61294C1.61774 4.47513 1.8313 4.39966 2.05192 4.39999H2.45955L2.26411 1.76479C2.2549 1.64141 2.27209 1.51753 2.3146 1.40087C2.35711 1.2842 2.42403 1.17727 2.51119 1.08673C2.59834 0.9962 2.70386 0.924011 2.82115 0.874675C2.93845 0.825339 3.065 0.799914 3.19291 0.799988H19.7996C19.9276 0.799914 20.0541 0.825339 20.1714 0.874675C20.2887 0.924011 20.3942 0.9962 20.4814 1.08673C20.5685 1.17727 20.6354 1.2842 20.678 1.40087C20.7205 1.51753 20.7377 1.64141 20.7284 1.76479L20.533 4.39999ZM18.668 4.39999L18.8001 2.59999H4.19244L4.32459 4.39999H18.668ZM2.72572 7.99999H20.4716L20.1607 6.19999H2.83926L2.52842 7.99999H2.72572ZM4.72478 9.79999L5.7876 24.2H17.205L18.2678 9.79999H4.72478Z" fill="#8B4513"/>
</svg>
