<svg width="71" height="70" viewBox="0 0 71 70" fill="none" xmlns="http://www.w3.org/2000/svg">
<circle cx="35.5" cy="35" r="34" fill="#8B4513" stroke="#4B2C20" stroke-width="2"/>
<path d="M26.1389 11.9V18.9H29.7108V11.9H26.1389ZM33.2827 13.65V18.9H36.8545V13.65H33.2827ZM15.2 20.65L15.4232 22.5645L18.6611 52.696C18.9469 55.356 21.29 57.4 24.019 57.4H40.7604C43.4893 57.4 45.8325 55.356 46.1182 52.696L46.9576 45.15H51.1421C54.08 45.15 56.5 42.7788 56.5 39.9V34.65C56.5 31.7713 54.08 29.4 51.1421 29.4H48.6311L49.3562 22.5645L49.5794 20.65H15.2ZM19.2183 24.15H45.561L42.5464 52.3145C42.5044 52.7496 42.2979 53.1535 41.9674 53.4469C41.6369 53.7403 41.2064 53.902 40.7604 53.9H24.019C23.092 53.9 22.3312 53.2228 22.233 52.3145L19.2183 24.15ZM48.24 32.9H51.1421C52.153 32.9 52.9281 33.6595 52.9281 34.65V39.9C52.9281 40.8905 52.153 41.65 51.1421 41.65H47.2916L48.24 32.9Z" fill="#FFF3E0"/>
</svg>
