<svg width="71" height="70" viewBox="0 0 71 70" fill="none" xmlns="http://www.w3.org/2000/svg">
<circle cx="35.5" cy="35" r="34" fill="#8B4513" stroke="#4B2C20" stroke-width="2"/>
<path d="M50.9578 18.9H51.6842C52.0702 18.8994 52.444 19.0315 52.7387 19.2726C53.0334 19.5138 53.23 19.8484 53.2933 20.2167L54.378 26.5167C54.4167 26.7422 54.4043 26.9732 54.3414 27.1936C54.2786 27.414 54.1669 27.6185 54.0141 27.793C53.8613 27.9674 53.671 28.1076 53.4566 28.2038C53.2421 28.3 53.0085 28.3499 52.7721 28.35H50.2607L48.2738 55.2384C48.2441 55.6356 48.06 56.0072 47.7584 56.2784C47.4568 56.5496 47.0602 56.7002 46.6484 56.7H23.6387C23.2263 56.701 22.8289 56.5507 22.5266 56.2795C22.2243 56.0082 22.0397 55.6361 22.01 55.2384L20.0296 28.35H17.5279C17.2915 28.3499 17.058 28.3 16.8435 28.2038C16.629 28.1076 16.4388 27.9674 16.286 27.793C16.1331 27.6185 16.0214 27.414 15.9586 27.1936C15.8958 26.9732 15.8833 26.7422 15.9221 26.5167L17.0068 20.2167C17.0701 19.8484 17.2666 19.5138 17.5614 19.2726C17.8561 19.0315 18.2298 18.8994 18.6159 18.9H19.3292L18.9872 14.2884C18.9711 14.0725 19.0012 13.8557 19.0756 13.6515C19.15 13.4474 19.2671 13.2602 19.4196 13.1018C19.5721 12.9433 19.7568 12.817 19.962 12.7307C20.1673 12.6443 20.3888 12.5998 20.6126 12.6H49.6744C49.8982 12.5998 50.1197 12.6443 50.325 12.7307C50.5302 12.817 50.7149 12.9433 50.8674 13.1018C51.0199 13.2602 51.1371 13.4474 51.2115 13.6515C51.2858 13.8557 51.3159 14.0725 51.2998 14.2884L50.9578 18.9ZM47.694 18.9L47.9252 15.75H22.3618L22.5931 18.9H47.694ZM19.795 25.2H50.8503L50.3063 22.05H19.9937L19.4498 25.2H19.795ZM23.2934 28.35L25.1533 53.55H45.1337L46.9936 28.35H23.2934Z" fill="#FFF3E0"/>
</svg>
