<svg width="70" height="70" viewBox="0 0 70 70" fill="none" xmlns="http://www.w3.org/2000/svg">
<circle cx="35" cy="35" r="34" fill="#8B4513" stroke="#4B2C20" stroke-width="2"/>
<path d="M58.1 36.5909C58.1 37.6204 57.7312 38.6078 57.0748 39.3358C56.4185 40.0637 55.5282 40.4727 54.6 40.4727H16.1C15.1717 40.4727 14.2815 40.0637 13.6251 39.3358C12.9687 38.6078 12.6 37.6204 12.6 36.5909C12.6 35.5614 12.9687 34.574 13.6251 33.846C14.2815 33.1181 15.1717 32.7091 16.1 32.7091H54.6C55.5282 32.7091 56.4185 33.1181 57.0748 33.846C57.7312 34.574 58.1 35.5614 58.1 36.5909ZM21.35 44.3545H16.1C16.1 47.4431 17.2062 50.4052 19.1754 52.5891C21.1445 54.7731 23.8152 56 26.6 56H44.1C46.8848 56 49.5555 54.7731 51.5246 52.5891C53.4937 50.4052 54.6 47.4431 54.6 44.3545H21.35ZM19.6 28.8273H16.1V21.0636C16.1 19.0046 16.8375 17.0299 18.1502 15.5739C19.463 14.1179 21.2435 13.3 23.1 13.3H47.6C49.4565 13.3 51.237 14.1179 52.5497 15.5739C53.8625 17.0299 54.6 19.0046 54.6 21.0636V28.8273H19.6ZM47.6 23.0045C47.6 23.5193 47.7843 24.013 48.1125 24.377C48.4407 24.741 48.8858 24.9454 49.35 24.9454C49.8141 24.9454 50.2592 24.741 50.5874 24.377C50.9156 24.013 51.1 23.5193 51.1 23.0045C51.1 22.4898 50.9156 21.9961 50.5874 21.6321C50.2592 21.2681 49.8141 21.0636 49.35 21.0636C48.8858 21.0636 48.4407 21.2681 48.1125 21.6321C47.7843 21.9961 47.6 22.4898 47.6 23.0045ZM40.6 19.1227C40.6 19.6375 40.7843 20.1312 41.1125 20.4951C41.4407 20.8591 41.8858 21.0636 42.35 21.0636C42.8141 21.0636 43.2592 20.8591 43.5874 20.4951C43.9156 20.1312 44.1 19.6375 44.1 19.1227C44.1 18.608 43.9156 18.1143 43.5874 17.7503C43.2592 17.3863 42.8141 17.1818 42.35 17.1818C41.8858 17.1818 41.4407 17.3863 41.1125 17.7503C40.7843 18.1143 40.6 18.608 40.6 19.1227ZM33.6 23.0045C33.6 23.5193 33.7844 24.013 34.1125 24.377C34.4407 24.741 34.8858 24.9454 35.35 24.9454C35.8141 24.9454 36.2592 24.741 36.5874 24.377C36.9156 24.013 37.1 23.5193 37.1 23.0045C37.1 22.4898 36.9156 21.9961 36.5874 21.6321C36.2592 21.2681 35.8141 21.0636 35.35 21.0636C34.8858 21.0636 34.4407 21.2681 34.1125 21.6321C33.7844 21.9961 33.6 22.4898 33.6 23.0045ZM26.6 19.1227C26.6 19.6375 26.7844 20.1312 27.1125 20.4951C27.4407 20.8591 27.8858 21.0636 28.35 21.0636C28.8141 21.0636 29.2592 20.8591 29.5874 20.4951C29.9156 20.1312 30.1 19.6375 30.1 19.1227C30.1 18.608 29.9156 18.1143 29.5874 17.7503C29.2592 17.3863 28.8141 17.1818 28.35 17.1818C27.8858 17.1818 27.4407 17.3863 27.1125 17.7503C26.7844 18.1143 26.6 18.608 26.6 19.1227ZM19.6 23.0045C19.6 23.5193 19.7844 24.013 20.1125 24.377C20.4407 24.741 20.8858 24.9454 21.35 24.9454C21.8141 24.9454 22.2592 24.741 22.5874 24.377C22.9156 24.013 23.1 23.5193 23.1 23.0045C23.1 22.4898 22.9156 21.9961 22.5874 21.6321C22.2592 21.2681 21.8141 21.0636 21.35 21.0636C20.8858 21.0636 20.4407 21.2681 20.1125 21.6321C19.7844 21.9961 19.6 22.4898 19.6 23.0045Z" fill="#FFF3E0"/>
</svg>
