<svg width="23" height="23" viewBox="0 0 23 23" fill="none" xmlns="http://www.w3.org/2000/svg">
<g clip-path="url(#clip0_124_268)">
<path fill-rule="evenodd" clip-rule="evenodd" d="M1.02872 3.23762C0.512695 4.23101 0.512695 5.53609 0.512695 8.14626V15.3879C0.512695 17.9981 0.512695 19.3032 1.02872 20.2966C1.46356 21.1337 2.14611 21.8162 2.98323 22.2511C3.97661 22.7671 5.2817 22.7671 7.89186 22.7671H15.1335C17.7437 22.7671 19.0488 22.7671 20.0422 22.2511C20.8793 21.8162 21.5618 21.1337 21.9967 20.2966C22.5127 19.3032 22.5127 17.9981 22.5127 15.3879V8.14626C22.5127 5.53609 22.5127 4.23101 21.9967 3.23762C21.5618 2.40051 20.8793 1.71796 20.0422 1.28311C19.0488 0.76709 17.7437 0.76709 15.1335 0.76709H7.89186C5.2817 0.76709 3.97661 0.76709 2.98323 1.28311C2.14611 1.71796 1.46356 2.40051 1.02872 3.23762ZM8.2019 3.81543C9.05521 3.7766 9.32787 3.7671 11.5005 3.7671H11.498C13.6712 3.7671 13.9429 3.7766 14.7962 3.81543C15.6478 3.85443 16.2295 3.98926 16.7395 4.1871C17.2661 4.39126 17.7111 4.6646 18.1561 5.1096C18.6011 5.55426 18.8744 6.0006 19.0794 6.52676C19.2761 7.03543 19.4111 7.61676 19.4511 8.46843C19.4894 9.32176 19.4994 9.59443 19.4994 11.7671C19.4994 13.9398 19.4894 14.2118 19.4511 15.0651C19.4111 15.9164 19.2761 16.4979 19.0794 17.0068C18.8744 17.5328 18.6011 17.9791 18.1561 18.4238C17.7116 18.8688 17.266 19.1428 16.74 19.3471C16.231 19.5449 15.649 19.6798 14.7974 19.7188C13.9441 19.7576 13.6722 19.7671 11.4995 19.7671C9.32703 19.7671 9.05454 19.7576 8.20124 19.7188C7.34976 19.6798 6.76828 19.5449 6.25929 19.3471C5.73348 19.1428 5.28716 18.8688 4.84267 18.4238C4.39785 17.9791 4.12453 17.5328 3.92003 17.0066C3.72237 16.4979 3.58754 15.9166 3.54838 15.0649C3.50971 14.2116 3.50004 13.9398 3.50004 11.7671C3.50004 9.59443 3.51004 9.3216 3.54821 8.46826C3.58654 7.61693 3.72154 7.03543 3.91986 6.5266C4.12486 6.0006 4.39818 5.55426 4.84317 5.1096C5.28782 4.66476 5.73414 4.39143 6.26029 4.1871C6.76895 3.98926 7.35026 3.85443 8.2019 3.81543ZM11.2338 5.20869C11.0721 5.20861 10.9222 5.20855 10.7828 5.20876V5.20676C9.29187 5.20843 9.00588 5.21843 8.2679 5.25176C7.48792 5.2876 7.06444 5.4176 6.78244 5.5276C6.40912 5.67293 6.14246 5.84626 5.86247 6.12626C5.58248 6.40626 5.40882 6.67293 5.26382 7.04626C5.15433 7.32826 5.024 7.7516 4.98833 8.5316C4.95 9.37493 4.94233 9.62693 4.94233 11.7633C4.94233 13.8996 4.95 14.1529 4.98833 14.9963C5.02383 15.7763 5.15433 16.1996 5.26382 16.4813C5.40915 16.8548 5.58248 17.1208 5.86247 17.4008C6.14246 17.6808 6.40912 17.8541 6.78244 17.9991C7.0646 18.1086 7.48792 18.2389 8.2679 18.2749C9.11121 18.3133 9.36437 18.3216 11.5005 18.3216C13.6364 18.3216 13.8897 18.3133 14.733 18.2749C15.513 18.2393 15.9367 18.1093 16.2183 17.9993C16.5918 17.8543 16.8576 17.6809 17.1376 17.4009C17.4176 17.1211 17.5913 16.8553 17.7363 16.4819C17.8458 16.2003 17.9761 15.7769 18.0118 14.9969C18.0501 14.1536 18.0584 13.9003 18.0584 11.7653C18.0584 9.63026 18.0501 9.37693 18.0118 8.5336C17.9763 7.7536 17.8458 7.33026 17.7363 7.0486C17.591 6.67526 17.4176 6.4086 17.1376 6.1286C16.8578 5.8486 16.5916 5.67526 16.2183 5.53026C15.9363 5.42076 15.513 5.29043 14.733 5.25476C13.8896 5.21643 13.6364 5.20876 11.5005 5.20876C11.4081 5.20876 11.3193 5.20872 11.2338 5.20869ZM14.8107 7.49676C14.8107 6.9666 15.2407 6.5371 15.7707 6.5371V6.53676C16.3007 6.53676 16.7306 6.96676 16.7306 7.49676C16.7306 8.02676 16.3007 8.45676 15.7707 8.45676C15.2407 8.45676 14.8107 8.02676 14.8107 7.49676ZM7.39226 11.7671C7.39226 9.49832 9.23161 7.65885 11.5003 7.65876C13.7691 7.65876 15.608 9.49826 15.608 11.7671C15.608 14.0359 13.7692 15.8746 11.5005 15.8746C9.2317 15.8746 7.39226 14.0359 7.39226 11.7671ZM14.1671 11.7671C14.1671 10.2943 12.9731 9.10043 11.5005 9.10043C10.0277 9.10043 8.83388 10.2943 8.83388 11.7671C8.83388 13.2398 10.0277 14.4338 11.5005 14.4338C12.9731 14.4338 14.1671 13.2398 14.1671 11.7671Z" fill="url(#paint0_radial_124_268)"/>
<path fill-rule="evenodd" clip-rule="evenodd" d="M1.02872 3.23762C0.512695 4.23101 0.512695 5.53609 0.512695 8.14626V15.3879C0.512695 17.9981 0.512695 19.3032 1.02872 20.2966C1.46356 21.1337 2.14611 21.8162 2.98323 22.2511C3.97661 22.7671 5.2817 22.7671 7.89186 22.7671H15.1335C17.7437 22.7671 19.0488 22.7671 20.0422 22.2511C20.8793 21.8162 21.5618 21.1337 21.9967 20.2966C22.5127 19.3032 22.5127 17.9981 22.5127 15.3879V8.14626C22.5127 5.53609 22.5127 4.23101 21.9967 3.23762C21.5618 2.40051 20.8793 1.71796 20.0422 1.28311C19.0488 0.76709 17.7437 0.76709 15.1335 0.76709H7.89186C5.2817 0.76709 3.97661 0.76709 2.98323 1.28311C2.14611 1.71796 1.46356 2.40051 1.02872 3.23762ZM8.2019 3.81543C9.05521 3.7766 9.32787 3.7671 11.5005 3.7671H11.498C13.6712 3.7671 13.9429 3.7766 14.7962 3.81543C15.6478 3.85443 16.2295 3.98926 16.7395 4.1871C17.2661 4.39126 17.7111 4.6646 18.1561 5.1096C18.6011 5.55426 18.8744 6.0006 19.0794 6.52676C19.2761 7.03543 19.4111 7.61676 19.4511 8.46843C19.4894 9.32176 19.4994 9.59443 19.4994 11.7671C19.4994 13.9398 19.4894 14.2118 19.4511 15.0651C19.4111 15.9164 19.2761 16.4979 19.0794 17.0068C18.8744 17.5328 18.6011 17.9791 18.1561 18.4238C17.7116 18.8688 17.266 19.1428 16.74 19.3471C16.231 19.5449 15.649 19.6798 14.7974 19.7188C13.9441 19.7576 13.6722 19.7671 11.4995 19.7671C9.32703 19.7671 9.05454 19.7576 8.20124 19.7188C7.34976 19.6798 6.76828 19.5449 6.25929 19.3471C5.73348 19.1428 5.28716 18.8688 4.84267 18.4238C4.39785 17.9791 4.12453 17.5328 3.92003 17.0066C3.72237 16.4979 3.58754 15.9166 3.54838 15.0649C3.50971 14.2116 3.50004 13.9398 3.50004 11.7671C3.50004 9.59443 3.51004 9.3216 3.54821 8.46826C3.58654 7.61693 3.72154 7.03543 3.91986 6.5266C4.12486 6.0006 4.39818 5.55426 4.84317 5.1096C5.28782 4.66476 5.73414 4.39143 6.26029 4.1871C6.76895 3.98926 7.35026 3.85443 8.2019 3.81543ZM11.2338 5.20869C11.0721 5.20861 10.9222 5.20855 10.7828 5.20876V5.20676C9.29187 5.20843 9.00588 5.21843 8.2679 5.25176C7.48792 5.2876 7.06444 5.4176 6.78244 5.5276C6.40912 5.67293 6.14246 5.84626 5.86247 6.12626C5.58248 6.40626 5.40882 6.67293 5.26382 7.04626C5.15433 7.32826 5.024 7.7516 4.98833 8.5316C4.95 9.37493 4.94233 9.62693 4.94233 11.7633C4.94233 13.8996 4.95 14.1529 4.98833 14.9963C5.02383 15.7763 5.15433 16.1996 5.26382 16.4813C5.40915 16.8548 5.58248 17.1208 5.86247 17.4008C6.14246 17.6808 6.40912 17.8541 6.78244 17.9991C7.0646 18.1086 7.48792 18.2389 8.2679 18.2749C9.11121 18.3133 9.36437 18.3216 11.5005 18.3216C13.6364 18.3216 13.8897 18.3133 14.733 18.2749C15.513 18.2393 15.9367 18.1093 16.2183 17.9993C16.5918 17.8543 16.8576 17.6809 17.1376 17.4009C17.4176 17.1211 17.5913 16.8553 17.7363 16.4819C17.8458 16.2003 17.9761 15.7769 18.0118 14.9969C18.0501 14.1536 18.0584 13.9003 18.0584 11.7653C18.0584 9.63026 18.0501 9.37693 18.0118 8.5336C17.9763 7.7536 17.8458 7.33026 17.7363 7.0486C17.591 6.67526 17.4176 6.4086 17.1376 6.1286C16.8578 5.8486 16.5916 5.67526 16.2183 5.53026C15.9363 5.42076 15.513 5.29043 14.733 5.25476C13.8896 5.21643 13.6364 5.20876 11.5005 5.20876C11.4081 5.20876 11.3193 5.20872 11.2338 5.20869ZM14.8107 7.49676C14.8107 6.9666 15.2407 6.5371 15.7707 6.5371V6.53676C16.3007 6.53676 16.7306 6.96676 16.7306 7.49676C16.7306 8.02676 16.3007 8.45676 15.7707 8.45676C15.2407 8.45676 14.8107 8.02676 14.8107 7.49676ZM7.39226 11.7671C7.39226 9.49832 9.23161 7.65885 11.5003 7.65876C13.7691 7.65876 15.608 9.49826 15.608 11.7671C15.608 14.0359 13.7692 15.8746 11.5005 15.8746C9.2317 15.8746 7.39226 14.0359 7.39226 11.7671ZM14.1671 11.7671C14.1671 10.2943 12.9731 9.10043 11.5005 9.10043C10.0277 9.10043 8.83388 10.2943 8.83388 11.7671C8.83388 13.2398 10.0277 14.4338 11.5005 14.4338C12.9731 14.4338 14.1671 13.2398 14.1671 11.7671Z" fill="#FFF3E0"/>
</g>
<defs>
<radialGradient id="paint0_radial_124_268" cx="0" cy="0" r="1" gradientUnits="userSpaceOnUse" gradientTransform="translate(6.35647 24.4616) rotate(-90) scale(21.8036 20.2791)">
<stop stop-color="#FFDD55"/>
<stop offset="0.1" stop-color="#FFDD55"/>
<stop offset="0.5" stop-color="#FF543E"/>
<stop offset="1" stop-color="#C837AB"/>
</radialGradient>
<clipPath id="clip0_124_268">
<rect width="22" height="22" fill="white" transform="translate(0.5 0.76709)"/>
</clipPath>
</defs>
</svg>
