<svg width="23" height="23" viewBox="0 0 23 23" fill="none" xmlns="http://www.w3.org/2000/svg">
<path fill-rule="evenodd" clip-rule="evenodd" d="M1.01602 3.23762C0.5 4.23101 0.5 5.53609 0.5 8.14626V15.3879C0.5 17.9981 0.5 19.3032 1.01602 20.2966C1.45087 21.1337 2.13342 21.8162 2.97053 22.2511C3.96392 22.7671 5.269 22.7671 7.87917 22.7671H15.1208C17.731 22.7671 19.0361 22.7671 20.0295 22.2511C20.8666 21.8162 21.5491 21.1337 21.984 20.2966C22.5 19.3032 22.5 17.9981 22.5 15.3879V8.14626C22.5 5.53609 22.5 4.23101 21.984 3.23762C21.5491 2.40051 20.8666 1.71796 20.0295 1.28311C19.0361 0.76709 17.731 0.76709 15.1208 0.76709H7.87917C5.269 0.76709 3.96392 0.76709 2.97053 1.28311C2.13342 1.71796 1.45087 2.40051 1.01602 3.23762ZM17.2866 6.0743C15.9007 4.68745 14.0862 3.88442 12.1388 3.78872L11.7477 3.77904C7.43184 3.77904 3.91926 7.2897 3.91753 11.6047C3.91696 12.9841 4.27752 14.3304 4.96274 15.5173L3.85187 19.5728L8.00274 18.4845C9.14642 19.108 10.4341 19.4366 11.7446 19.4371H11.7478C16.0632 19.4371 19.5761 15.9261 19.5779 11.6109C19.5787 9.51986 18.765 7.55354 17.2866 6.0743ZM8.43272 17.2087L8.19504 17.0677L5.73188 17.7135L6.38934 15.3131L6.2346 15.067C5.58313 14.0313 5.23907 12.8343 5.23956 11.6052C5.24099 8.0187 8.16053 5.10087 11.7504 5.10087C13.4887 5.10144 15.1227 5.77898 16.3515 7.00857C17.5802 8.23808 18.2565 9.87241 18.2558 11.6105C18.2544 15.1972 15.3349 18.1154 11.7478 18.1154H11.7451C10.5773 18.1149 9.43194 17.8013 8.43272 17.2087ZM15.4245 13.2959C15.561 13.3618 15.6532 13.4063 15.6925 13.472C15.7415 13.5535 15.7415 13.9451 15.5784 14.4019C15.4154 14.8587 14.6337 15.2756 14.2579 15.3317C13.9207 15.3821 13.4943 15.4031 13.0256 15.2542C12.7414 15.1641 12.377 15.0438 11.9102 14.8423C10.0761 14.0507 8.83661 12.274 8.6023 11.9381C8.58588 11.9146 8.57439 11.8981 8.56799 11.8895L8.56627 11.8873C8.46227 11.7485 7.76909 10.8238 7.76909 9.86665C7.76909 8.96579 8.21188 8.49362 8.41562 8.27635C8.42956 8.26149 8.44237 8.24783 8.45385 8.2353C8.63319 8.03948 8.84515 7.99058 8.97559 7.99058C9.106 7.99058 9.23656 7.99182 9.35054 7.99747C9.3646 7.99817 9.37922 7.99809 9.39434 7.998C9.50836 7.99734 9.65052 7.99651 9.79077 8.33315C9.84467 8.46262 9.92353 8.65452 10.0067 8.85695C10.1751 9.26671 10.3612 9.71963 10.394 9.78517C10.4429 9.88306 10.4755 9.99721 10.4103 10.1277C10.4005 10.1474 10.3914 10.1659 10.3827 10.1836C10.3338 10.2835 10.2978 10.357 10.2146 10.454C10.182 10.492 10.1483 10.533 10.1147 10.5741C10.0472 10.6561 9.97983 10.7381 9.92114 10.7966C9.8232 10.8941 9.72127 10.9999 9.83537 11.1957C9.9495 11.3914 10.3422 12.0318 10.9238 12.5503C11.5491 13.1078 12.0925 13.3434 12.3679 13.4628C12.4217 13.4861 12.4652 13.505 12.4971 13.5209C12.6928 13.6188 12.8069 13.6025 12.921 13.472C13.0352 13.3415 13.4101 12.901 13.5405 12.7052C13.6709 12.5095 13.8014 12.5421 13.9807 12.6073C14.16 12.6726 15.1219 13.1457 15.3176 13.2436C15.3558 13.2627 15.3915 13.2799 15.4245 13.2959Z" fill="#FFF3E0"/>
</svg>
