<svg width="23" height="23" viewBox="0 0 23 23" fill="none" xmlns="http://www.w3.org/2000/svg">
<path fill-rule="evenodd" clip-rule="evenodd" d="M1.01602 3.23762C0.5 4.23101 0.5 5.53609 0.5 8.14626V15.3879C0.5 17.9981 0.5 19.3032 1.01602 20.2966C1.45087 21.1337 2.13342 21.8162 2.97053 22.2511C3.96392 22.7671 5.269 22.7671 7.87917 22.7671H15.1208C17.731 22.7671 19.0361 22.7671 20.0295 22.2511C20.8666 21.8162 21.5491 21.1337 21.984 20.2966C22.5 19.3032 22.5 17.9981 22.5 15.3879V8.14626C22.5 5.53609 22.5 4.23101 21.984 3.23762C21.5491 2.40051 20.8666 1.71796 20.0295 1.28311C19.0361 0.76709 17.731 0.76709 15.1208 0.76709H7.87917C5.269 0.76709 3.96392 0.76709 2.97053 1.28311C2.13342 1.71796 1.45087 2.40051 1.01602 3.23762ZM16.2667 11.7671L15.7778 14.8226H13.3333V22.7671H9.66667V14.8226H6.91667V11.7671H9.66667V9.32264C9.66667 6.57264 11.4389 5.04486 13.9444 5.04486C14.7389 5.04486 15.5944 5.16708 16.3889 5.2893V8.10041H14.9833C13.6389 8.10041 13.3333 8.77264 13.3333 9.62819V11.7671H16.2667Z" fill="#FFF3E0"/>
</svg>
