<svg width="24" height="25" viewBox="0 0 24 25" fill="none" xmlns="http://www.w3.org/2000/svg">
<mask id="mask0_124_225" style="mask-type:alpha" maskUnits="userSpaceOnUse" x="0" y="0" width="24" height="25">
<rect y="0.26709" width="24" height="24" fill="#D9D9D9"/>
</mask>
<g mask="url(#mask0_124_225)">
<path d="M4 20.2671C3.45 20.2671 2.97917 20.0713 2.5875 19.6796C2.19583 19.2879 2 18.8171 2 18.2671V6.26709C2 5.71709 2.19583 5.24626 2.5875 4.85459C2.97917 4.46292 3.45 4.26709 4 4.26709H20C20.55 4.26709 21.0208 4.46292 21.4125 4.85459C21.8042 5.24626 22 5.71709 22 6.26709V18.2671C22 18.8171 21.8042 19.2879 21.4125 19.6796C21.0208 20.0713 20.55 20.2671 20 20.2671H4ZM12 13.2671L4 8.26709V18.2671H20V8.26709L12 13.2671ZM12 11.2671L20 6.26709H4L12 11.2671ZM4 8.26709V6.26709V18.2671V8.26709Z" fill="#1C1B1F" fill-opacity="0.46"/>
</g>
</svg>
