<svg width="23" height="23" viewBox="0 0 23 23" fill="none" xmlns="http://www.w3.org/2000/svg">
<path fill-rule="evenodd" clip-rule="evenodd" d="M1.01602 3.23762C0.5 4.23101 0.5 5.53609 0.5 8.14626V15.3879C0.5 17.9981 0.5 19.3032 1.01602 20.2966C1.45087 21.1337 2.13342 21.8162 2.97053 22.2511C3.96392 22.7671 5.269 22.7671 7.87917 22.7671H15.1208C17.731 22.7671 19.0361 22.7671 20.0295 22.2511C20.8666 21.8162 21.5491 21.1337 21.984 20.2966C22.5 19.3032 22.5 17.9981 22.5 15.3879V8.14626C22.5 5.53609 22.5 4.23101 21.984 3.23762C21.5491 2.40051 20.8666 1.71796 20.0295 1.28311C19.0361 0.76709 17.731 0.76709 15.1208 0.76709H7.87917C5.269 0.76709 3.96392 0.76709 2.97053 1.28311C2.13342 1.71796 1.45087 2.40051 1.01602 3.23762ZM17.6134 9.49903C17.6134 9.36162 17.6117 9.22426 17.6063 9.08685C18.1754 8.64339 18.6681 8.08759 19.0595 7.45676C18.5378 7.70659 17.9752 7.87511 17.3855 7.95006C17.9883 7.56281 18.4496 6.94459 18.6681 6.20758C18.1043 6.56984 17.4814 6.83215 16.8164 6.96956C16.2852 6.35746 15.5284 5.97641 14.6905 5.97641C13.0811 5.97641 11.7765 7.38801 11.7765 9.13062C11.7765 9.37421 11.802 9.61774 11.8517 9.84883C9.43041 9.71767 7.28264 8.46223 5.84606 6.55098C5.5938 7.01942 5.4505 7.56284 5.4505 8.13746C5.4505 9.2305 5.96509 10.1986 6.74792 10.767C6.27005 10.7482 5.82002 10.6046 5.42683 10.3735V10.4111C5.42683 11.9413 6.43171 13.2154 7.76584 13.5027C7.5195 13.5777 7.26251 13.6151 6.99781 13.6151C6.8101 13.6151 6.62654 13.5963 6.4483 13.5589C6.81959 14.808 7.89613 15.7262 9.17104 15.7449C8.17385 16.5944 6.9167 17.1004 5.55177 17.1004C5.31668 17.1004 5.08515 17.0816 4.85717 17.0566C6.14689 17.9498 7.67762 18.4745 9.32382 18.4745C14.6829 18.4745 17.6134 13.665 17.6134 9.49903Z" fill="#FFF3E0"/>
</svg>
